<?xml version="1.0" encoding="UTF-8" standalone="no"?>
<!DOCTYPE svg PUBLIC "-//W3C//DTD SVG 1.1//EN" "http://www.w3.org/Graphics/SVG/1.1/DTD/svg11.dtd">
<svg version="1.1" xmlns="http://www.w3.org/2000/svg" xmlns:xlink="http://www.w3.org/1999/xlink" preserveAspectRatio="xMidYMid meet" viewBox="0 0 640 640" width="640" height="640"><defs><path d="M0 73.24C0 110.01 0 404.12 0 440.89C0 481.42 34.84 514.13 78.22 514.13C81.64 514.13 98.7 514.13 129.42 514.13C129.42 579.41 129.42 615.68 129.42 622.93C129.42 629.33 133.69 635.73 140.09 638.58C142.93 640 145.07 640 147.91 640C152.18 640 156.44 638.58 160 636.44C170.76 628.29 224.57 587.52 321.42 514.13C465.64 514.13 545.75 514.13 561.78 514.13C605.16 514.13 640 481.42 640 440.89C640 404.12 640 110.01 640 73.24C640 32.71 605.16 0 561.78 0C465.07 0 126.58 0 78.22 0C34.84 0 0 32.71 0 73.24ZM268.8 218.31L268.8 201.24L268.8 184.18L229.69 358.4L187.73 358.4L148.62 184.89L148.62 359.11L108.09 359.11L108.09 151.47L171.38 151.47L209.07 315.02L246.76 151.47L309.33 151.47L309.33 359.11L268.8 359.11L268.8 218.31ZM504.18 359.11C501.62 343.75 500.2 335.22 499.91 333.51C490.67 342.76 483.56 349.87 476.44 354.13C465.07 361.24 450.84 364.8 434.49 364.8C406.76 364.8 384.71 355.56 366.93 336.36C348.44 317.16 339.2 290.84 339.2 258.13C339.2 224.71 348.44 197.69 366.93 177.07C385.42 156.44 409.6 146.49 440.18 146.49C466.49 146.49 487.82 152.89 503.47 166.4C519.11 179.91 528.36 196.27 531.2 216.18C526.93 216.18 492.8 216.18 488.53 216.18C484.98 201.96 477.16 192 464.36 186.31C457.24 183.47 449.42 181.33 440.89 181.33C423.82 181.33 410.31 187.73 399.64 200.53C388.98 213.33 383.29 231.82 383.29 257.42C383.29 283.02 388.98 300.8 401.07 311.47C413.16 322.13 425.96 327.11 440.89 327.11C455.11 327.11 467.2 322.84 476.44 314.31C485.69 305.78 491.38 295.11 493.51 281.6C490.29 281.6 474.17 281.6 445.16 281.6C445.16 279.28 445.16 267.66 445.16 246.76L531.91 246.76L531.91 359.11L532.62 359.11C515.56 359.11 506.08 359.11 504.18 359.11Z" id="f13hunqRdg"></path><path d="M0 73.24C0 110.01 0 404.12 0 440.89C0 481.42 34.84 514.13 78.22 514.13C81.64 514.13 98.7 514.13 129.42 514.13C129.42 579.41 129.42 615.68 129.42 622.93C129.42 629.33 133.69 635.73 140.09 638.58C142.93 640 145.07 640 147.91 640C152.18 640 156.44 638.58 160 636.44C170.76 628.29 224.57 587.52 321.42 514.13C465.64 514.13 545.75 514.13 561.78 514.13C605.16 514.13 640 481.42 640 440.89C640 404.12 640 110.01 640 73.24C640 32.71 605.16 0 561.78 0C465.07 0 126.58 0 78.22 0C34.84 0 0 32.71 0 73.24ZM268.8 218.31L268.8 201.24L268.8 184.18L229.69 358.4L187.73 358.4L148.62 184.89L148.62 359.11L108.09 359.11L108.09 151.47L171.38 151.47L209.07 315.02L246.76 151.47L309.33 151.47L309.33 359.11L268.8 359.11L268.8 218.31ZM504.18 359.11C501.62 343.75 500.2 335.22 499.91 333.51C490.67 342.76 483.56 349.87 476.44 354.13C465.07 361.24 450.84 364.8 434.49 364.8C406.76 364.8 384.71 355.56 366.93 336.36C348.44 317.16 339.2 290.84 339.2 258.13C339.2 224.71 348.44 197.69 366.93 177.07C385.42 156.44 409.6 146.49 440.18 146.49C466.49 146.49 487.82 152.89 503.47 166.4C519.11 179.91 528.36 196.27 531.2 216.18C526.93 216.18 492.8 216.18 488.53 216.18C484.98 201.96 477.16 192 464.36 186.31C457.24 183.47 449.42 181.33 440.89 181.33C423.82 181.33 410.31 187.73 399.64 200.53C388.98 213.33 383.29 231.82 383.29 257.42C383.29 283.02 388.98 300.8 401.07 311.47C413.16 322.13 425.96 327.11 440.89 327.11C455.11 327.11 467.2 322.84 476.44 314.31C485.69 305.78 491.38 295.11 493.51 281.6C490.29 281.6 474.17 281.6 445.16 281.6C445.16 279.28 445.16 267.66 445.16 246.76L531.91 246.76L531.91 359.11L532.62 359.11C515.56 359.11 506.08 359.11 504.18 359.11Z" id="cHdmHN0qO"></path></defs><g><g><g><use xlink:href="#f13hunqRdg" opacity="1" fill="#00adb5" fill-opacity="1"></use><g><use xlink:href="#f13hunqRdg" opacity="1" fill-opacity="0" stroke="#000000" stroke-width="1" stroke-opacity="0"></use></g></g><g><use xlink:href="#cHdmHN0qO" opacity="1" fill="#00adb5" fill-opacity="1"></use><g><use xlink:href="#cHdmHN0qO" opacity="1" fill-opacity="0" stroke="#000000" stroke-width="1" stroke-opacity="0"></use></g></g></g></g></svg>